<?xml version="1.0" encoding="UTF-8"?>
<svg id="Layer_1" data-name="Layer 1" xmlns="http://www.w3.org/2000/svg" viewBox="0 0 552.13 599.27">
  <path d="M265.66,599.27c-37.32-13.21-74.73-26.18-111.88-39.85-6.86-2.52-12.63-7.96-19.05-11.8-1.98-1.18-4.45-2.17-6.71-2.18-26.71-.16-53.41,.1-80.12-.18-24.19-.25-45.43-18.1-47.4-40.95-2.4-27.78,3.69-53.87,20.18-76.85,13-18.13,30.68-29.52,53.17-34.75-1.23-2.14-2.37-3.85-3.25-5.69-4.6-9.63-9.42-19.18-13.59-29-2.61-6.15-.19-11.04,5.24-12.75,5.47-1.72,9,1.34,11.78,7.26,5.68,12.09,12.17,23.81,18.58,35.55,.75,1.37,3.01,2.46,4.71,2.69,9.03,1.21,18.1,2.11,27.65,3.17,.38-2.93,.74-6.5,1.33-10.03,1.78-10.8,7.46-19.16,16.55-25.04,2.79-1.81,3.74-3.67,3.92-6.95,1.53-28.63,26.16-44.85,53.17-35.06,23.57,8.54,47.03,17.41,70.67,25.76,3.31,1.17,7.73,1.2,11.03,.04,23.46-8.26,47.02-16.37,70.06-25.71,25.34-10.26,53.41,6.31,54.11,35.4,.05,1.93,1.23,4.59,2.76,5.6,12.2,8.1,18.16,19.4,18.39,33.9,.01,.76,.17,1.51,.23,2.07,9.76-1.06,19.37-1.87,28.87-3.34,2-.31,3.99-2.83,5.34-4.78,25.69-37.24,30.49-77.49,16.56-120.14-3.24-9.91-7.67-19.42-12.17-30.66-14.48,29.33-36.04,47.54-66.41,54.2-30.65,6.72-57.75-1.42-82.26-21.6-10.25,13.42-23.82,21.17-40.78,21.17-16.78,0-30.42-7.24-40.92-21.18-24.12,19.84-51.28,28.36-82.13,21.67-30.55-6.62-52.16-24.81-66.19-53.3-7.83,14.27-13.85,28.65-16.57,43.97-2.23,12.57-2.74,25.47-3.61,38.25-.45,6.71-3.32,10.79-8.76,10.78-5.42,0-8.56-3.96-8.87-10.75-1.65-36.23,9.27-68.99,27.07-99.99,2.07-3.61,3.31-8.31,3.19-12.45-.76-25.35,1.75-34.71,18.66-64.51-12.16-14.24-22.45-29.68-28.07-47.9-8.4-27.22-4.97-53.15,8.61-77.79,9.92-18,34.66-21.26,47.36-5.33,14.33,17.98,33,27.73,54.05,34.82,14.89,5.02,29.76,10.41,44.01,16.99,20.67,9.56,37.22,24.67,51.86,42.77,3.69-4.05,7.12-7.91,10.66-11.68,13.09-13.92,28.26-25,45.54-33.17,6.33-2.99,11.7-1.7,13.94,3.33,2.15,4.83-.08,9.68-6.18,12.57-22.56,10.69-40.39,26.86-54.97,46.89-5.44,7.48-11.77,8.22-16.55,1.28-21.99-31.85-52.83-50.39-89.38-60.78-7.65-2.17-15.09-5.15-22.48-8.12-16.6-6.66-30.63-16.81-41.68-31.03-7.07-9.1-16.54-8.17-21.81,2.08-11.1,21.55-12.86,43.74-4.28,66.59,4.92,13.09,12.31,24.63,21.61,35.32,29.44-23.35,61.82-30.59,96.89-16.36,35,14.2,53.71,41.61,58.65,78.64h20.2c8.12-76.17,95.99-112.88,155.53-62.56,26.18-28.44,36.09-65.68,17.96-100.96-5.61-10.92-15.06-12.1-22.45-2.41-16.23,21.28-39.27,31.21-63.75,38.77-5.14,1.59-9.6-1.01-11.22-5.77-1.56-4.58,.79-9.11,5.9-11.12,9.22-3.62,18.63-6.8,27.66-10.83,10.83-4.84,19.71-12.37,27.13-21.69,16.19-20.34,41.43-17.69,52.79,5.74,20.15,41.52,11.69,79.31-15.58,114.46-1.79,2.31-3.68,4.54-5.51,6.82-.12,.15-.19,.34,1.2-.08,4.91,12.15,10.98,23.98,14.36,36.54,2.57,9.55,1.61,20.03,2.5,30.08,.28,3.14,.81,6.58,2.35,9.23,14.37,24.66,24.73,50.73,27.57,79.3,3.25,32.61-3.72,63.07-20.76,91.15-.99,1.63-1.94,3.3-3.19,5.43,1.79,.54,3.18,.95,4.58,1.37,37.93,11.36,58.55,38.26,66.28,75.69,2.44,11.83,3.49,24.61,1.82,36.48-3.24,23.1-23.3,39-46.9,39.24-26.31,.27-52.63,.15-78.95,0-3.97-.02-6.64,1.11-9.63,3.87-4.05,3.74-8.87,7.21-13.99,9.15-32.91,12.42-65.96,24.44-99.02,36.45-5.23,1.9-10.74,3.05-16.12,4.54h-21.05ZM96.76,197.76c.47,4.24,.67,8.54,1.45,12.72,5.41,29.06,22.06,49.19,49.81,58.86,27.81,9.68,53.24,3.79,75.6-15.42,2.91-2.5,4.03-5.06,3.6-9.05-1.89-17.3,3.92-31.86,17.12-43.13,3.08-2.63,4.35-5.14,3.79-8.89-.32-2.12-.65-4.23-.94-6.35-4.9-35.74-38.8-67.7-83.12-63.55-36.35,3.4-66.88,36.74-67.3,74.81ZM379.78,121.9c-7.25,1.26-14.69,1.88-21.73,3.9-29.38,8.43-51.31,35.57-53.63,66.1-.21,2.74,.36,6.71,2.16,8.23,14,11.9,20.15,26.86,18.58,45-.32,3.69,.63,6.15,3.36,8.59,18.3,16.35,39.71,22.88,63.74,18.92,39.11-6.44,66.45-42.4,62.84-81.59-3.53-38.37-36.37-68.27-75.32-69.15Zm4.32,424.37c-.06-.44-.12-.89-.18-1.33-1.08-.25-2.17-.5-3.25-.75-20.74-4.78-35.2-23.87-33.91-45.05,2.58-42.23,21.56-74.38,58.76-95.3,1.29-.72,2.87-1.7,3.37-2.93,3.73-9.22-2.07-23.92-10.97-28.41-6.42-3.24-12.72-2.29-19.18,.08-29.16,10.73-58.3,21.52-87.63,31.8-4.49,1.57-6.03,3.01-6.02,7.79,.18,54.15,.11,108.3,.11,162.45v7.63c33.79-12.29,66.34-24.13,98.89-35.97Zm-217.32-.59c34.09,12.41,66.62,24.25,100.37,36.54,0-4.25,0-6.54,0-8.82,0-50.68,0-101.37-.02-152.05,0-4.86,1.41-10.77-.83-14.26-1.97-3.07-8.16-3.44-12.48-5.01-27.77-10.09-55.64-19.9-83.24-30.43-10.08-3.85-23.58,1.95-26.43,13.28-.89,3.53-.52,7.36-.97,11.02-.52,4.19,1.03,6.52,4.89,8.64,23.78,13.09,41.1,32.31,50,57.92,4.16,11.95,6.5,24.9,7.34,37.56,1.46,22.08-12.11,37.71-38.64,45.6Zm-62-18.09c1.56,0,3.12,.01,4.68,0,18.7-.16,37.43,.25,56.09-.7,12.63-.64,21.85-11.2,21.97-23.84,.07-7.14-.44-14.48-2.04-21.42-9.23-40.03-40.21-68.01-81.5-72.66-26.81-3.02-50.14,4.81-67.33,26.81-12.3,15.75-17.1,34.17-18.95,53.7-2.4,25.33,13.42,39.22,36.22,38.25,16.92-.72,33.9-.14,50.86-.14Zm342.65,0c0-.17,0-.33,0-.5,20.26,0,40.55,.72,60.77-.23,15.42-.73,26.86-14.12,26.36-29.64-.32-9.85-1.18-19.93-3.65-29.43-6.92-26.55-21.61-47.25-48.96-55.64-54.48-16.72-114.45,24.29-117.16,84.91-.88,19.7,9.21,30.41,28.85,30.5,17.93,.09,35.86,.02,53.79,.02Zm-59.91-176.81c-.2-1.16-.29-3.49-1.01-5.6-3.84-11.26-15.01-16.33-26.96-12-25.75,9.33-51.37,19-77.19,28.11-3.68,1.3-8.52,1.24-12.26,.04-12.19-3.93-24.09-8.73-36.14-13.12-14.78-5.38-29.44-11.15-44.43-15.86-12.97-4.08-26.14,7.29-24.11,19.43,5.57,1.7,11.01,3.11,16.28,5.02,26.47,9.61,52.92,19.26,79.32,29.08,10.13,3.77,20.09,3.96,30.15,.03,3.26-1.27,6.55-2.44,9.84-3.63,28.6-10.42,57.2-20.83,86.5-31.5Zm-111.26-112.87c9-1.17,17.83-2.39,26.67-3.42,3.85-.45,4.28-2.2,3.18-5.55-4.02-12.17-16.6-21.29-29.81-21.37-13.16-.08-25.72,8.9-29.98,21.13-1.28,3.67-.66,5.38,3.43,5.83,8.85,.98,17.67,2.23,26.51,3.38Zm27.42,16.13h-54.86c2.99,8.8,13.95,16.32,25.42,16.8,13.47,.56,24.61-5.94,29.44-16.8Z"/>
  <path d="M182.8,232.37c.2-2.78,.14-6.12,.76-9.32,.85-4.37,4.01-6.67,8.34-6.71,4.32-.04,7.97,2.16,8.4,6.53,.64,6.51,.7,13.16,.13,19.68-.4,4.55-3.87,7.04-8.63,6.95-4.77-.09-7.62-2.8-8.42-7.32-.54-3.03-.39-6.18-.58-9.8Z"/>
  <path d="M351.18,231.97c.18-2.64,.07-5.8,.69-8.8,.96-4.59,4.25-6.98,8.85-6.83,4.33,.15,7.73,2.58,8.09,6.96,.52,6.34,.57,12.79,0,19.13-.41,4.56-3.78,7.09-8.53,7.07-4.78-.02-7.69-2.7-8.52-7.2-.59-3.21-.41-6.56-.59-10.32Z"/>
  <path d="M83.38,457.73c-4.61-.11-11.61-3.75-16.58-10.99-2.92-4.25-2.21-9.05,1.4-12.04,3.57-2.95,8.4-2.59,12.14,.92,6.67,6.24,8.42,6.25,14.94,.07,3.73-3.54,8.53-3.95,12.13-1.04,3.62,2.93,4.23,7.73,1.53,12.07-4.21,6.77-12.54,11.07-25.56,11.01Z"/>
  <path d="M57.82,499.04c-7.71-.11-14.8-3.58-19.88-10.76-2.97-4.19-2.44-9.13,.99-12.15,3.59-3.16,8.73-2.79,12.59,.9,6.14,5.88,8.46,5.88,14.51,.04,3.85-3.73,8.97-4.13,12.58-.98,3.76,3.28,4.2,8.08,.82,12.56-5.12,6.79-11.99,10.32-21.6,10.39Z"/>
  <path d="M139.14,499.03c-8.18-.09-15.15-3.79-20.23-10.91-2.97-4.17-2.35-8.95,1.27-12.06,3.51-3.01,8.43-2.72,12.1,.71,6.7,6.26,8.32,6.24,15.39-.18,3.69-3.35,7.69-3.61,11.65-.71,3.82,2.8,4.62,7.89,1.74,11.98-5.14,7.33-12.26,11.16-21.93,11.17Z"/>
  <path d="M464.87,457.81c-8.91-.03-15.79-3.52-20.9-10.34-3.36-4.48-2.97-9.36,.71-12.59,3.66-3.22,8.59-2.84,12.56,.97,6.17,5.92,8.43,5.92,14.53,.03,3.95-3.82,8.89-4.22,12.56-1.02,3.71,3.24,4.13,8.08,.78,12.58-5.09,6.84-11.98,10.32-20.24,10.38Z"/>
  <path d="M494.74,499.04c-9.76-.04-16.63-3.58-21.76-10.35-3.43-4.52-3.03-9.22,.75-12.55,3.59-3.16,8.74-2.79,12.58,.91,6.1,5.88,8.44,5.88,14.51,.04,3.86-3.71,8.98-4.1,12.58-.97,3.59,3.12,3.98,8.24,.73,12.63-5.1,6.88-12.07,10.18-19.39,10.3Z"/>
  <path d="M412.44,499.05c-8.61-.05-15.64-3.64-20.78-10.73-3.17-4.37-2.54-9.36,1.35-12.47,3.57-2.86,8.38-2.4,12.09,1.15,6.26,6,8.37,5.97,14.98-.22,3.67-3.44,8.59-3.73,12.1-.72,3.62,3.11,4.26,7.88,1.29,12.06-5.07,7.14-12.07,10.79-21.02,10.93Z"/>
</svg>