<svg width="823" height="385" viewBox="0 0 823 385" fill="none" xmlns="http://www.w3.org/2000/svg">
<path d="M57.7192 158.222C58.1035 144.814 67.1129 134.417 71.1052 129.4C75.0975 124.383 68.6287 120.561 71.1052 109.609C74.9054 92.8074 94.6535 102.244 94.6535 75.1942C94.6535 66.7826 96.6603 64.9893 96.6603 64.9893C96.6603 64.9893 81.8439 32.4103 108.723 21.6076C108.723 21.6076 111.114 7.77327 135.537 1.58198C159.961 -4.6093 181.951 20.5828 166.131 57.0901L164.935 85.9116C167.224 86.3294 169.314 87.4837 170.886 89.1987C172.459 90.9137 173.428 93.0955 173.646 95.412C175.439 107.624 191.045 100.023 191.857 131.706L57.7192 158.222Z" fill="#7F542D"/>
<path d="M114.466 115.374C102.339 119.131 92.8174 118.448 92.8174 107.602C92.8174 97.4402 105.392 92.0175 103.343 75.5786C101.293 59.1397 104.474 51.1977 110.046 44.0457C115.618 36.8937 123.646 12.5556 143.415 16.8681C163.185 21.1807 166.131 56.9834 166.131 56.9834L155.691 90.3096C155.691 90.3096 168.501 108.072 164.743 114.541C160.986 121.01 114.466 115.374 114.466 115.374Z" fill="#683F1D"/>
<path d="M161.839 91.8254C161.839 91.8254 171.831 91.9748 169.269 104.848C168.362 109.241 168.96 113.811 170.966 117.823C172.972 121.835 176.27 125.056 180.328 126.966" stroke="#BF8228" stroke-width="1.3023" stroke-linecap="round" stroke-linejoin="round"/>
<path d="M108.722 30.8309C97.6208 43.8539 101.912 56.8343 101.912 56.8343" stroke="#BF8228" stroke-width="1.3023" stroke-linecap="round" stroke-linejoin="round"/>
<path d="M97.9418 99.6823C85.8795 105.852 78.8556 117.936 86.3705 129.571C87.9071 131.858 88.9201 134.456 89.3371 137.18C89.7541 139.903 89.5649 142.685 88.783 145.327" stroke="#BF8228" stroke-width="1.3023" stroke-linecap="round" stroke-linejoin="round"/>
<path d="M108.723 21.6079C108.723 21.6079 117.647 24.1911 120.209 29.7206" stroke="#BF8228" stroke-width="1.3023" stroke-linecap="round" stroke-linejoin="round"/>
<path d="M126.677 20.7967C126.677 20.7967 146.639 2.43633 160.943 19.0888" stroke="#BF8228" stroke-width="1.3023" stroke-linecap="round" stroke-linejoin="round"/>
<path d="M171.703 79.4214C172.13 102.564 156.268 108.414 148.624 108.883C131.097 109.502 114.871 89.669 109.449 82.1541C109.256 80.5956 109.043 79.0157 108.787 77.3932C98.3683 79.5281 94.0985 74.7459 92.9243 67.4017C91.7501 60.0576 100.717 51.5392 112.331 60.9969C123.219 53.482 124.735 43.0636 122.45 33.798C125.018 30.1073 128.698 27.3338 132.954 25.8821C137.209 24.4303 141.817 24.3763 146.105 25.728C158.274 29.2719 166.75 45.903 170.102 64.0285C170.864 68.163 171.363 72.3416 171.596 76.5392C171.639 77.4999 171.682 78.4606 171.703 79.4214Z" fill="#FEBD9D"/>
<path d="M153.279 38.5802C153.663 41.6545 161.605 42.1455 165.17 40.3522C168.736 38.5589 152.297 29.8057 153.279 38.5802Z" fill="#7F542D"/>
<path d="M128.684 45.1775C128.065 47.9102 135.857 44.3235 138.697 44.11C141.536 43.8965 142.966 42.6582 141.6 39.1783C140.234 35.6984 129.986 39.3064 128.684 45.1775Z" fill="#7F542D"/>
<path d="M144.248 61.0186C145.545 61.0186 146.597 59.9672 146.597 58.6702C146.597 57.3732 145.545 56.3218 144.248 56.3218C142.951 56.3218 141.9 57.3732 141.9 58.6702C141.9 59.9672 142.951 61.0186 144.248 61.0186Z" fill="#683F1D"/>
<path d="M160.837 55.1048C162.134 55.1048 163.185 54.0534 163.185 52.7564C163.185 51.4594 162.134 50.408 160.837 50.408C159.54 50.408 158.488 51.4594 158.488 52.7564C158.488 54.0534 159.54 55.1048 160.837 55.1048Z" fill="#683F1D"/>
<path d="M153.747 51.4968C153.577 58.4994 156.95 60.9119 157.783 61.7231C159.683 63.5805 164.187 61.7231 162.052 68.5335" stroke="#F4A789" stroke-width="1.3023" stroke-linecap="round" stroke-linejoin="round"/>
<path d="M145.635 80.6171C148.667 77.6069 160.174 78.226 161.476 79.4216C162.779 80.6171 160.58 85.8263 155.584 85.8263C150.588 85.8263 144.226 82.0475 145.635 80.6171Z" fill="white" stroke="#F4A789" stroke-width="1.3023" stroke-linecap="round" stroke-linejoin="round"/>
<path d="M99.4785 68.1707C102.126 64.2851 107.634 65.5874 109.833 67.5302C102.724 66.356 102.062 74.2765 110.046 72.1843" stroke="#F4A789" stroke-width="1.3023" stroke-linecap="round" stroke-linejoin="round"/>
<path d="M146.404 75.3436C145.273 78.6527 139.359 79.6134 133.147 77.4785C126.934 75.3436 122.835 71.0737 123.945 67.7219C125.055 64.3701 130.99 63.452 137.182 65.587C143.373 67.7219 147.515 72.0344 146.404 75.3436Z" fill="#F4A789"/>
<path d="M171.511 76.4965C168.586 77.0515 166.152 76.4965 165.106 74.8953C163.334 72.2693 165.533 67.5938 170.102 64.0071C170.834 68.1364 171.304 72.3078 171.511 76.4965Z" fill="#F4A789"/>
<path d="M102.424 79.4214C102.42 80.4342 102.718 81.4253 103.279 82.2686C103.839 83.1118 104.639 83.769 105.574 84.1566C106.51 84.5441 107.54 84.6444 108.533 84.4447C109.526 84.245 110.437 83.7543 111.15 83.0351C111.863 82.3159 112.346 81.4008 112.537 80.4063C112.729 79.4117 112.62 78.3827 112.224 77.4503C111.829 76.5179 111.165 75.7242 110.317 75.1704C109.469 74.6166 108.475 74.3276 107.463 74.3403C106.124 74.3571 104.846 74.8992 103.904 75.8496C102.961 76.8001 102.43 78.0829 102.424 79.4214V79.4214Z" fill="#A7CAF0"/>
<path d="M308.146 151.56L283.252 183.798C283.252 183.798 249.948 317.722 233.188 328.973C227.884 332.474 221.802 334.622 215.475 335.228C209.147 335.835 202.768 334.882 196.895 332.453C196.904 332.375 196.904 332.296 196.895 332.218C196.895 331.897 181.95 319.707 184.896 301.283C185.153 299.575 218.415 242.081 232.676 216.761C244.077 196.351 257.932 173.038 257.932 173.038L308.146 151.56Z" fill="#FEBD9D"/>
<path d="M257.954 173.08C257.954 173.08 259.897 142.829 260.58 139.434C261.263 136.039 281.694 116.377 284.598 114.818C287.501 113.26 305.606 118.618 307.079 120.262C308.552 121.906 306.887 125.813 302.019 125.514C297.151 125.215 301.336 137 301.336 137C301.336 137 309.214 145.326 308.039 151.56C308.039 151.56 277.51 182.325 277.126 182.218C276.741 182.111 257.954 173.08 257.954 173.08Z" fill="#FEBD9D"/>
<path d="M257.954 173.08C257.954 173.08 259.897 142.829 260.58 139.434C261.263 136.039 281.694 116.377 284.598 114.818C287.501 113.26 305.606 118.618 307.079 120.262C308.552 121.906 306.887 125.813 302.019 125.514C297.151 125.215 301.336 137 301.336 137C301.336 137 309.214 145.326 308.039 151.56C308.039 151.56 277.51 182.325 277.126 182.218C276.741 182.111 257.954 173.08 257.954 173.08Z" fill="#FEBD9D"/>
<path d="M260.58 139.434C261.178 135.975 281.694 116.377 284.662 114.818C287.63 113.26 305.67 118.618 307.143 120.262C308.616 121.906 306.951 125.813 302.083 125.514" stroke="#F4A789" stroke-width="1.3023" stroke-linecap="round" stroke-linejoin="round"/>
<path d="M289.764 126.988C290.042 126.305 301.442 122.504 303.385 123.188C305.328 123.871 314.657 139.434 314.956 142.53C315.255 145.626 310.815 159.311 306.78 158.094C302.745 156.877 306.95 145.284 306.95 145.284L289.764 126.988Z" fill="#FEBD9D" stroke="#F4A789" stroke-width="1.3023" stroke-linecap="round" stroke-linejoin="round"/>
<path d="M297.642 153.93C300.929 156.065 304.772 151.069 306.95 145.39L299.606 139.327C299.606 139.327 292.774 150.706 297.642 153.93Z" fill="#FEBD9D" stroke="#F4A789" stroke-width="1.3023" stroke-linecap="round" stroke-linejoin="round"/>
<path d="M308.701 140.907L311.092 146.885C311.163 147.061 311.184 147.254 311.153 147.441C311.122 147.629 311.041 147.804 310.918 147.949C310.795 148.094 310.635 148.202 310.455 148.263C310.276 148.324 310.082 148.335 309.897 148.294L303.599 146.97L251.037 102.671C250.64 102.336 250.312 101.926 250.074 101.465C249.835 101.003 249.69 100.5 249.646 99.982C249.603 99.4644 249.662 98.9433 249.82 98.4485C249.978 97.9537 250.232 97.4949 250.567 97.0985V97.0985C251.244 96.2917 252.213 95.7868 253.262 95.6947C254.311 95.6026 255.354 95.9309 256.161 96.6074L308.701 140.907Z" fill="#683F1D"/>
<path d="M274.691 138.217C280.605 129.677 287.095 122.974 290.255 122.205C295.016 121.052 296.083 126.689 284.896 143.021C286.713 147.68 286.995 152.798 285.701 157.629C284.407 162.459 281.604 166.751 277.702 169.878" fill="#FEBD9D"/>
<path d="M274.691 138.217C280.605 129.677 287.095 122.974 290.255 122.205C295.016 121.052 296.083 126.689 284.896 143.021C286.713 147.68 286.995 152.798 285.701 157.629C284.407 162.459 281.604 166.751 277.702 169.878" stroke="#F4A789" stroke-width="1.3023" stroke-linecap="round" stroke-linejoin="round"/>
<path d="M226.72 238.452C226.357 240.16 223.688 245.07 223.304 246.757C215.533 279.763 202.552 311.68 196.916 332.368C195.334 338.369 194.059 344.447 193.095 350.578C190.255 367.871 189.358 384.139 189.358 384.139L61.4978 381.748L46.0195 381.471L46.6173 316.078L46.7454 302.329C46.7454 302.329 10.1955 299.81 9.91793 300.557C9.64039 301.304 11.6899 280.574 11.6899 280.574C-0.287011 266.825 -1.11963 246.693 1.93331 234.567C3.91879 226.454 12.0529 204.678 20.4004 186.339C23.7371 178.661 27.648 171.246 32.0998 164.157C42.6037 148.614 49.1792 147.44 62.8855 144.622C76.5917 141.804 100.033 129.464 100.033 129.464L144.397 124.49C144.397 124.49 167.625 126.112 188.334 125.237C208.018 124.404 219.077 128.845 227.723 146.971C228.171 147.91 228.641 148.913 229.089 149.959C235.494 164.904 241.216 186.104 244.034 197.077C235.153 218.298 226.72 238.452 226.72 238.452Z" fill="#FED81D"/>
<path d="M227.723 146.864C209.576 144.9 198.239 159.951 184.917 188.474C169.012 222.441 134.32 227.116 101.1 200.494C71.8303 177.009 50.3743 171.48 20.3999 186.232C23.7366 178.555 27.6475 171.14 32.0993 164.05C42.6031 148.508 49.1787 147.334 62.8849 144.516C76.5912 141.698 100.033 129.358 100.033 129.358L144.396 124.383C144.396 124.383 167.624 126.006 188.333 125.131C208.017 124.298 219.076 128.739 227.723 146.864Z" fill="#FED81D"/>
<path d="M65.1704 292.872L77.0406 217.103C80.3497 222.184 89.4659 229.229 86.5197 243.555C79.0261 279.742 104.026 251.091 113.761 268.491C117.796 275.664 83.6375 287.556 65.1704 292.872Z" fill="#FCC71F"/>
<path d="M108.509 124.148C105.072 122.654 99.9692 127.564 99.9692 129.358C99.9692 131.151 105.008 146.821 111.733 154.187C118.458 161.552 130.712 163.111 135.366 145.903C147.792 158.841 159.939 153.973 158.253 138.239C156.566 122.505 145.443 119.473 145.443 119.473L108.509 124.148Z" fill="white"/>
<path d="M64.103 299.703L65.1705 292.871L77.0407 217.039L80.7555 193.341" stroke="#FCC71F" stroke-width="1.3023" stroke-linecap="round" stroke-linejoin="round"/>
<path d="M11.6895 280.468C29.8468 274.635 49.0279 272.685 67.9875 274.746" stroke="#FCC71F" stroke-width="1.3023" stroke-linecap="round" stroke-linejoin="round"/>
<path d="M142.24 171.224C144.869 171.224 147.001 169.092 147.001 166.463C147.001 163.833 144.869 161.702 142.24 161.702C139.611 161.702 137.479 163.833 137.479 166.463C137.479 169.092 139.611 171.224 142.24 171.224Z" fill="white"/>
<path d="M147.023 191.206C149.652 191.206 151.784 189.075 151.784 186.445C151.784 183.816 149.652 181.684 147.023 181.684C144.394 181.684 142.262 183.816 142.262 186.445C142.262 189.075 144.394 191.206 147.023 191.206Z" fill="white"/>
<path d="M22.0655 347.334C1.97589 340.417 8.16718 309.588 10.4942 293.47L32.9323 288.047L67.3046 279.763C67.3046 279.763 73.133 355.382 22.0655 347.334Z" fill="#FEBD9D"/>
<path d="M148.624 108.905C148.624 109.332 148.325 117.295 148.112 123.017C148.112 125.536 147.92 127.628 147.877 128.418C147.749 131.066 142.134 142.082 130.392 139.093C118.65 136.104 108.787 126.006 108.488 124.148C108.189 122.291 113.569 107.069 110.623 83.8837C120.956 71.9281 150.973 79.4217 148.624 108.905Z" fill="#FEBD9D"/>
<path d="M148.624 108.884C148.624 108.884 148.325 117.124 148.09 123.017C140.02 121.907 124.606 117.124 125.567 96.4584C128.961 101.518 140.575 109.247 148.624 108.884Z" fill="#F4A789"/>
<path d="M246.66 228.332C246.53 228.324 246.403 228.287 246.289 228.224C246.175 228.161 246.075 228.074 245.998 227.969L206.993 172.568C206.922 172.467 206.872 172.352 206.846 172.231C206.82 172.11 206.82 171.985 206.843 171.864C206.873 171.747 206.925 171.637 206.999 171.541C207.072 171.446 207.165 171.367 207.27 171.308C209.734 169.74 212.554 168.822 215.468 168.64C221.873 168.64 228.278 174.532 237.65 188.986C255.114 215.8 249.499 225.664 247.364 228.033C247.282 228.128 247.18 228.203 247.066 228.255C246.952 228.306 246.828 228.333 246.702 228.332H246.66Z" fill="#F9F9F9"/>
<path d="M215.47 169.494C221 169.494 227.02 174.276 236.819 189.477C251.337 211.787 250.355 223.273 246.597 227.457L207.806 172.056C210.133 170.549 212.81 169.667 215.577 169.494H215.47ZM215.577 167.765C212.542 167.954 209.604 168.909 207.037 170.54C206.827 170.664 206.645 170.83 206.502 171.027C206.358 171.224 206.256 171.449 206.202 171.686C206.148 171.924 206.143 172.17 206.188 172.41C206.232 172.65 206.325 172.878 206.461 173.081L245.466 228.461C245.622 228.676 245.823 228.855 246.055 228.984C246.288 229.113 246.546 229.189 246.811 229.208V229.208C247.056 229.21 247.3 229.159 247.524 229.06C247.749 228.961 247.949 228.814 248.113 228.631C250.248 226.134 256.29 215.822 238.485 188.516C228.877 173.764 222.238 167.765 215.577 167.765V167.765Z" fill="#DDDDDD"/>
<path d="M262.694 238.452C262.529 238.452 262.367 238.408 262.224 238.324L246.234 228.204C246.124 228.125 246.033 228.023 245.967 227.905C245.901 227.787 245.861 227.656 245.849 227.521C245.84 227.39 245.86 227.259 245.908 227.137C245.956 227.015 246.031 226.906 246.127 226.817C247.871 225.215 250.164 224.344 252.532 224.383C254.311 224.445 256.058 224.878 257.661 225.654C259.263 226.43 260.687 227.531 261.84 228.887C266.281 233.798 263.569 238.068 263.527 238.11C263.432 238.237 263.304 238.336 263.158 238.396C263.011 238.456 262.851 238.476 262.694 238.452V238.452Z" fill="#F9F9F9"/>
<path d="M252.425 225.258C254.086 225.331 255.715 225.749 257.207 226.484C258.699 227.219 260.022 228.255 261.093 229.528C265.128 233.99 262.694 237.683 262.694 237.683L246.703 227.5C248.282 226.107 250.32 225.347 252.425 225.365V225.258ZM252.425 223.614C249.883 223.606 247.43 224.55 245.55 226.261C245.349 226.442 245.191 226.667 245.091 226.919C244.991 227.171 244.951 227.443 244.974 227.713C244.997 227.979 245.081 228.236 245.217 228.465C245.354 228.695 245.541 228.89 245.764 229.037L261.755 239.22C262.038 239.392 262.362 239.488 262.694 239.498C262.983 239.5 263.268 239.428 263.522 239.29C263.776 239.152 263.99 238.952 264.146 238.708C264.295 238.494 267.263 233.819 262.395 228.418C261.169 226.947 259.648 225.751 257.931 224.905C256.213 224.059 254.338 223.583 252.425 223.507V223.614Z" fill="#DDDDDD"/>
<path d="M123.111 218.576L211.326 166.462C211.326 166.462 240.682 197.226 246.702 227.457L153.086 276.027C153.086 276.027 142.753 242.722 123.111 218.576Z" fill="#F9F9F9" stroke="#DDDDDD" stroke-width="1.75064" stroke-linecap="round" stroke-linejoin="round"/>
<path d="M157.506 273.742L180.051 280.467L262.651 237.641C258.255 232.964 252.758 229.463 246.661 227.457L157.506 273.742Z" fill="#DDDDDD" stroke="#DDDDDD" stroke-width="1.75064" stroke-miterlimit="10"/>
<path d="M199.052 245.796C198.198 249.767 190.192 250.706 185.281 250.386C180.371 250.066 163.932 251.027 163.932 251.027C163.932 251.027 172.984 255.916 173.945 256.834C176.889 261.209 179.176 265.992 180.734 271.031C183.104 278.332 181.332 282.709 178.941 282.175C176.549 281.641 175.717 277.905 175.717 277.905C174.884 282.794 171.853 278.738 171.853 278.738C171.853 280.296 164.359 293.682 161.327 290.928C158.296 288.174 162.544 281.449 162.544 281.449H159.449C153.761 286.179 147.762 290.523 141.494 294.451C135.744 297.796 129.449 300.102 122.899 301.261C122.899 301.261 108.424 311.509 90.1917 322.44C67.6896 335.975 39.4232 350.578 25.7383 348.315C22.1702 347.872 18.798 346.437 16.0052 344.172C13.2124 341.908 11.1109 338.905 9.93984 335.506V335.506C9.94896 335.399 9.94896 335.292 9.93984 335.185C9.93984 334.929 9.705 334.545 9.55556 334.054C7.42063 327.03 2.85189 296.885 67.1986 279.805L67.6042 279.699L113.655 268.341C123.262 258.541 144.632 239.477 148.155 238.452C151.678 237.427 199.884 241.825 199.052 245.796Z" fill="#FEBD9D"/>
<path d="M162.63 281.364C162.63 281.364 158.36 288.132 161.413 290.843C164.466 293.555 171.938 280.169 171.938 278.653C171.938 278.653 174.97 282.709 175.802 277.82C175.802 277.82 176.635 281.663 179.026 282.197C181.417 282.731 183.189 278.333 180.798 271.031C179.266 265.993 176.985 261.214 174.03 256.855C173.091 255.916 164.018 251.027 164.018 251.027C164.018 251.027 180.371 250.087 185.367 250.386C190.363 250.685 198.305 249.767 199.137 245.796C199.97 241.825 151.806 237.47 148.262 238.516C146.49 239.029 140.256 244.067 133.317 250.194" stroke="#F4A789" stroke-width="1.3023" stroke-linecap="round" stroke-linejoin="round"/>
<path d="M164.018 251.027L155.82 247.782" stroke="#F4A789" stroke-width="1.3023" stroke-linecap="round" stroke-linejoin="round"/>
<path d="M157.955 258.669C157.955 258.669 171.042 264.284 171.938 266.206C173.814 269.856 175.117 273.773 175.803 277.82" stroke="#F4A789" stroke-width="1.3023" stroke-linecap="round" stroke-linejoin="round"/>
<path d="M159.427 268.341C159.427 268.341 169.141 274.34 170.315 275.514C171.115 276.446 171.672 277.561 171.938 278.759" stroke="#F4A789" stroke-width="1.3023" stroke-linecap="round" stroke-linejoin="round"/>
<path d="M805.446 75.5854V298.496H487.588V75.5854C487.586 72.632 488.165 69.7072 489.295 66.9782C490.424 64.2492 492.08 61.7696 494.168 59.6813C496.256 57.5929 498.736 55.9369 501.465 54.8078C504.194 53.6787 507.119 53.0987 510.072 53.1011H782.962C788.925 53.1011 794.644 55.47 798.861 59.6866C803.077 63.9032 805.446 69.6222 805.446 75.5854Z" stroke="#DDDDDD" stroke-width="2.98818" stroke-linecap="round" stroke-linejoin="round"/>
<path d="M805.446 75.5854V76.5875H487.588V75.5854C487.586 72.632 488.165 69.7072 489.295 66.9782C490.424 64.2492 492.08 61.7696 494.168 59.6813C496.256 57.5929 498.736 55.9369 501.465 54.8078C504.194 53.6787 507.119 53.0987 510.072 53.1011H782.962C788.925 53.1011 794.644 55.47 798.861 59.6866C803.077 63.9032 805.446 69.6222 805.446 75.5854Z" stroke="#DDDDDD" stroke-width="2.98818" stroke-linecap="round" stroke-linejoin="round"/>
<path d="M762.427 64.8532C762.427 65.6641 762.187 66.4567 761.736 67.1309C761.286 67.8051 760.646 68.3305 759.897 68.6408C759.147 68.9511 758.323 69.0323 757.528 68.8741C756.733 68.7159 756.002 68.3255 755.429 67.7521C754.855 67.1788 754.465 66.4483 754.307 65.653C754.149 64.8578 754.23 64.0335 754.54 63.2844C754.85 62.5353 755.376 61.895 756.05 61.4445C756.724 60.994 757.517 60.7536 758.328 60.7536C759.415 60.7536 760.458 61.1855 761.227 61.9544C761.995 62.7232 762.427 63.7659 762.427 64.8532Z" fill="#DDDDDD"/>
<path d="M775.766 64.8532C775.766 65.6641 775.525 66.4567 775.075 67.1309C774.624 67.8051 773.984 68.3305 773.235 68.6408C772.486 68.9511 771.661 69.0323 770.866 68.8741C770.071 68.7159 769.34 68.3255 768.767 67.7521C768.194 67.1788 767.803 66.4483 767.645 65.653C767.487 64.8578 767.568 64.0335 767.878 63.2844C768.189 62.5353 768.714 61.895 769.388 61.4445C770.063 60.994 770.855 60.7536 771.666 60.7536C772.753 60.7536 773.796 61.1855 774.565 61.9544C775.334 62.7232 775.766 63.7659 775.766 64.8532Z" fill="#DDDDDD"/>
<path d="M789.103 64.8532C789.103 65.6641 788.862 66.4567 788.412 67.1309C787.961 67.8051 787.321 68.3305 786.572 68.6408C785.823 68.9511 784.998 69.0323 784.203 68.8741C783.408 68.7159 782.677 68.3255 782.104 67.7521C781.531 67.1788 781.14 66.4483 780.982 65.653C780.824 64.8578 780.905 64.0335 781.215 63.2844C781.526 62.5353 782.051 61.895 782.725 61.4445C783.4 60.994 784.192 60.7536 785.003 60.7536C786.09 60.7536 787.133 61.1855 787.902 61.9544C788.671 62.7232 789.103 63.7659 789.103 64.8532Z" fill="#DDDDDD"/>
<path d="M494.367 172.501C493.547 163.172 534.707 145.516 541.467 159.145L528.093 172.501C528.093 172.501 500.27 183.488 494.367 172.501Z" fill="#83ADDF"/>
<path d="M514.537 105.85C508.524 87.2649 508.105 84.9873 512.095 83.5479C516.085 82.1085 526.253 103.281 527.4 105.85C531.42 113.982 534.519 122.538 536.638 131.359C538.46 139.594 540.738 158.58 541.121 163.154C542.687 182.449 510.874 188.298 509.49 173.303C508.105 158.307 507.959 153.442 507.959 153.442C507.959 153.442 491.561 155.009 489.246 142.728C487.802 133.125 487.247 123.409 487.588 113.703C487.588 113.703 462.626 109.567 463.519 102.989C464.412 96.4116 513.243 109.713 513.243 109.713L514.537 105.85Z" fill="#B25E47"/>
<path d="M487.588 113.703C487.588 113.703 462.626 109.567 463.519 102.989C464.412 96.4116 513.243 109.713 513.243 109.713L514.537 105.85C508.524 87.2649 508.105 84.9873 512.095 83.5479C516.085 82.1085 526.253 103.281 527.4 105.85" stroke="#914839" stroke-width="1.11146" stroke-linecap="round" stroke-linejoin="round"/>
<path d="M513.206 109.713C511.093 117.924 511.454 126.577 514.245 134.584" stroke="#914839" stroke-width="1.11146" stroke-linecap="round" stroke-linejoin="round"/>
<path d="M501.509 95.4822C505.426 97.5229 508.505 97.9602 509.672 92.3847C510.838 86.8092 505.426 86.6269 503.604 86.9185C500.816 87.374 499.832 94.5894 501.509 95.4822Z" fill="#683F1D"/>
<path d="M502.292 94.0249C501.418 97.0131 500.78 100.748 500.798 100.639C501.454 100.967 505.208 102.261 505.791 100.967C506.377 98.6873 506.792 96.3668 507.03 94.0249H502.292Z" fill="#683F1D"/>
<path d="M498.758 102.497C496.699 111.608 486.131 161.824 485.785 163.464C485.438 165.103 485.894 172.683 486.55 172.975C487.206 173.266 490.85 167.837 492.216 165.085C493.583 162.334 505.426 107.289 506.173 104.72C507.995 98.4707 500.106 96.5211 498.758 102.497Z" fill="#683F1D"/>
<path d="M489.447 130.976C484.327 132.16 482.869 137.044 486.659 140.287C490.722 143.767 500.726 142.109 501.236 137.754C501.746 133.399 493.711 129.992 489.447 130.976Z" fill="#B25E47" stroke="#914839" stroke-width="1.11146" stroke-linecap="round" stroke-linejoin="round"/>
<path d="M489.027 122.959C483.78 122.194 482.486 127.387 486.239 131.486C489.993 135.586 502.365 136.424 503.057 131.632C503.749 126.84 492.216 123.433 489.027 122.959Z" fill="#B25E47" stroke="#914839" stroke-width="1.11146" stroke-linecap="round" stroke-linejoin="round"/>
<path d="M484.345 113.994C490.941 112.427 505.226 122.121 504.661 125.127C503.969 128.899 497.245 129.482 487.679 125.419C478.715 121.629 481.102 114.76 484.345 113.994Z" fill="#B25E47" stroke="#914839" stroke-width="1.11146" stroke-linecap="round" stroke-linejoin="round"/>
<mask id="mask0_607_14" style="mask-type:alpha" maskUnits="userSpaceOnUse" x="486" y="74" width="319" height="225">
<rect x="486" y="74" width="319" height="225" fill="#C4C4C4"/>
</mask>
<g mask="url(#mask0_607_14)">
<path d="M802.039 186.749C781.559 185.747 764.595 204.241 759.348 225.468C759.184 226.051 759.056 226.707 758.929 227.399C758.365 230.668 757.975 233.965 757.763 237.275C755.576 265.298 757.635 321.09 757.763 322.329C757.854 322.784 743.186 322.329 723.053 321.381C715.619 321.035 707.401 320.652 698.874 320.215C655.436 318.083 603.853 315.204 603.853 315.204L600.738 280.385C600.738 280.385 594.233 291.317 572.022 312.836C549.811 334.354 514.263 322.329 518.089 295.344C520.476 278.399 530.497 265.991 542.614 245.255C546.258 238.824 550.303 231.608 554.293 223.209C559.595 212.039 564.77 201.344 569.708 191.742C571.876 187.496 574.008 183.469 576.067 179.661C583.865 165.285 590.862 154.389 596.492 149.306C613.419 134 649.66 142.819 659.317 145.917C673.729 150.601 688.683 153.418 703.812 154.298C725.239 155.792 757.763 165.03 774.999 171.025C784.962 174.362 794.134 179.707 801.948 186.731L802.039 186.749Z" fill="#A7CAF0"/>
<path d="M816.451 218.562C797.702 199.74 769.223 191.523 740.653 216.995C707.419 246.604 681.91 251.742 644.522 208.504C617.482 177.238 608.08 169.257 576.14 179.661C583.938 165.285 590.935 154.389 596.565 149.306C613.492 134 649.733 142.819 659.39 145.917C673.802 150.601 688.755 153.418 703.884 154.298C725.312 155.792 757.835 165.03 775.072 171.025C785.035 174.362 794.207 179.707 802.02 186.731V186.731C809.4 192.634 813.773 204.459 816.451 218.562Z" fill="#A7CAF0"/>
<path d="M569.198 272.367C557.3 285.322 546.514 257.208 542.651 245.255C546.295 238.823 550.34 231.608 554.33 223.208C559.632 212.039 564.807 201.344 569.745 191.741C578.545 205.206 566.647 217.542 565.809 223.646C563.732 239.935 586.362 253.764 569.198 272.367Z" fill="#83ADDF"/>
<path d="M494.366 172.501C512.805 176.382 541.466 159.145 541.466 159.145C541.466 159.145 557.264 229.64 561.382 245.274C565.499 260.907 591.883 322.146 540.483 324.661C507.503 326.264 505.28 263.567 503.349 242.923C501.418 222.279 494.366 172.501 494.366 172.501Z" fill="#A7CAF0"/>
<path d="M506.592 180.554C520.786 181.556 536.602 172.009 536.602 172.009" stroke="#83ADDF" stroke-width="1.11146" stroke-linecap="round" stroke-linejoin="round"/>
<path d="M541.467 159.145C541.467 159.145 557.264 229.64 561.382 245.274C563.641 253.801 572.515 275.903 571.768 294.633" stroke="#83ADDF" stroke-width="1.11146" stroke-linecap="round" stroke-linejoin="round"/>
<path d="M644.522 157.432C653.632 174.505 678.121 190.903 707.565 168.255C707.565 168.255 710.736 158.853 710.408 158.853C710.08 158.853 648.695 151.419 648.695 151.419L644.522 157.432Z" fill="white"/>
<path d="M668.756 136.26C661.176 134.547 650.171 136.46 642.591 148.103C635.011 159.746 634.045 169.367 634.483 169.257C634.92 169.148 646.344 161.969 651.574 162.425C657.214 163.383 662.789 164.698 668.264 166.36L668.756 136.26Z" fill="#FED81D"/>
<path d="M702.937 139.667C702.937 139.667 719.7 139.777 721.96 151.529C724.219 163.281 718.006 177.366 710.408 183.889C702.81 190.412 707.001 174.487 679.761 167.016L702.937 139.667Z" fill="#FED81D"/>
<path d="M711.118 153.405C711.118 153.405 701.807 167.563 681.054 167.891C660.301 168.219 656.311 155.829 656.311 155.829C658.552 150.217 661.267 138.246 662.998 129.846C664.091 124.544 664.82 120.736 664.82 120.736C664.82 120.736 668.245 87.5015 703.885 89.5058L704.486 94.972L711.118 153.405Z" fill="#B25E47"/>
<path d="M662.998 130.101C664.091 124.799 664.82 120.991 664.82 120.991L685.099 111.48C685.099 111.48 688.306 134.638 662.998 130.101Z" fill="#914839"/>
<path d="M600.792 280.385C597.932 247.588 597.932 221.131 597.932 221.131" stroke="#83ADDF" stroke-width="1.11146" stroke-linecap="round" stroke-linejoin="round"/>
</g>
<path d="M736.191 359.991C734.453 359.354 732.796 358.517 731.253 357.495C720.868 350.644 719.975 337.288 723.127 321.381C725.568 309.192 730.415 295.508 735.098 282.098C740.455 266.811 745.702 251.888 747.178 239.953C747.397 238.277 747.524 236.674 747.579 235.143C747.849 225.977 749.526 216.906 752.553 208.25C761.117 184.144 779.884 168.966 802.022 186.731C809.31 192.616 813.756 204.442 816.435 218.544C817.4 223.573 818.147 228.894 818.767 234.323C820.808 252.781 821.081 272.587 821.992 287.4C826.456 359.007 809.31 387.577 736.191 359.991Z" fill="#A7CAF0"/>
<path d="M816.452 218.563C800.327 202.364 776.95 194.019 752.553 208.25C761.116 184.144 779.884 168.966 802.022 186.731C809.401 192.635 813.774 204.46 816.452 218.563Z" fill="#A7CAF0"/>
<path d="M757.837 322.329C757.928 322.785 743.26 322.329 723.126 321.382C715.692 321.035 707.475 320.653 698.948 320.215C684.371 313.638 675.261 304.127 683.041 290.498C704.213 253.455 743.169 304.783 745.137 268.05C746.504 242.887 752.607 237.439 757.764 237.275C755.577 265.299 757.636 321.054 757.837 322.329Z" fill="#83ADDF"/>
<path d="M762.812 214.536C759.916 221.795 758.212 229.473 757.765 237.275C755.815 265.317 757.637 321.09 757.765 322.329" stroke="#83ADDF" stroke-width="1.11146" stroke-linecap="round" stroke-linejoin="round"/>
<path d="M736.191 359.991C734.453 359.355 732.796 358.517 731.253 357.495C747.998 361.139 773.033 364.327 784.093 354.907C801.493 340.094 790.433 321.108 800.054 310.649C809.674 300.191 823.54 296.82 818.785 234.396C820.825 252.854 821.099 272.659 822.01 287.473C826.456 359.007 809.31 387.577 736.191 359.991Z" fill="#83ADDF"/>
<path d="M694.282 234.36C696.943 222.389 681.929 222.936 681.929 222.936C683.259 211.894 668.646 208.851 665.275 219.601C653.414 215.957 649.66 219.601 647.929 225.851L694.282 234.36Z" fill="#DDDDDD"/>
<path d="M674.039 224.084C676.001 224.084 677.592 222.493 677.592 220.531C677.592 218.568 676.001 216.978 674.039 216.978C672.077 216.978 670.486 218.568 670.486 220.531C670.486 222.493 672.077 224.084 674.039 224.084Z" fill="#F9F9F9" stroke="#DDDDDD" stroke-width="1.49409" stroke-linecap="round" stroke-linejoin="round"/>
<path d="M625.372 216.996L603.215 337.142L691.203 354.907L714.835 234.597L625.372 216.996Z" fill="#F9F9F9" stroke="#DDDDDD" stroke-width="1.49409" stroke-linecap="round" stroke-linejoin="round"/>
<path d="M652.483 296.601C647.983 308.299 647.728 320.58 649.787 324.698C649.787 324.698 658.186 326.246 666.568 303.489L652.483 296.601Z" fill="#83ADDF"/>
<path d="M663.945 274.044C643.811 267.139 634.19 262.948 630.564 261.964C626.939 260.98 613.838 259.887 611.743 261.964C610.818 262.959 610.186 264.19 609.916 265.52C609.646 266.851 609.748 268.231 610.212 269.507C610.904 272.295 608.682 274.318 608.39 277.142C608.098 279.966 611.469 280.786 610.759 283.592C610.048 286.398 607.843 289.441 609.374 292.52C610.904 295.599 607.843 298.788 610.759 302.56C613.674 306.331 643.355 308.135 649.86 306.75L662.615 312.453C662.615 312.453 685.117 289.259 663.945 274.044Z" fill="#B25E47"/>
<path d="M630.491 261.91C626.847 260.944 613.765 259.832 611.669 261.91C610.745 262.904 610.113 264.135 609.843 265.466C609.573 266.797 609.675 268.177 610.139 269.453C610.831 272.241 608.608 274.263 608.317 277.087C608.025 279.912 611.396 280.732 610.685 283.538C609.975 286.343 607.77 289.386 609.301 292.466C610.831 295.545 607.77 298.733 610.685 302.505" stroke="#914839" stroke-width="1.11146" stroke-linecap="round" stroke-linejoin="round"/>
<path d="M784.201 354.907C778.971 364.364 765.852 368.937 740.981 361.412C734.258 359.39 727.771 357.276 721.576 355.144C711.3 351.628 701.825 348.02 693.334 344.576C678.526 338.687 664.028 332.046 649.896 324.679C653.622 320.538 656.628 315.802 658.788 310.668C660.146 307.621 661.261 304.471 662.123 301.248C664.445 292.333 665.063 283.061 663.945 273.917C667.334 274.937 670.978 275.97 674.877 277.014C684.151 279.547 694.537 282.189 705.068 284.959C736.627 293.267 769.442 302.796 777.441 314.64C778.17 315.715 778.862 316.826 779.518 317.956C779.773 318.393 780.046 318.849 780.283 319.304C780.357 319.422 780.424 319.544 780.484 319.669C780.775 320.197 781.067 320.762 781.34 321.309C781.838 322.268 782.293 323.234 782.706 324.206C787.28 335.047 788.61 346.781 784.201 354.907Z" fill="#A7CAF0"/>
<path d="M663.945 274.044C700.076 284.977 765.598 297.349 777.368 314.768C779.402 317.795 781.164 320.996 782.634 324.333" stroke="#83ADDF" stroke-width="1.11146" stroke-linecap="round" stroke-linejoin="round"/>
<path d="M674.731 277.087C676.973 299.735 665.275 321.473 665.275 321.473" stroke="#83ADDF" stroke-width="1.11146" stroke-linecap="round" stroke-linejoin="round"/>
<path d="M784.091 354.907C778.862 364.364 765.743 368.937 740.872 361.412C734.148 359.39 727.662 357.276 721.467 355.144C736.025 358.989 770.535 366.459 784.091 354.907Z" fill="#83ADDF"/>
<path d="M703.885 89.7062L704.504 95.1724C691.878 114.832 674.641 120.991 664.82 120.991C648.604 116.946 643.065 102.351 642.117 86.6998C641.873 82.9507 641.861 79.1901 642.081 75.4395C642.844 64.8178 644.675 54.2999 647.547 44.0454C647.547 44.0454 696.251 21.379 699.621 66.8758C699.621 66.8758 710.062 65.0538 712.011 76.5874C713.524 86.1714 703.885 89.7062 703.885 89.7062Z" fill="#B25E47"/>
<path d="M649.898 75.4945C650.975 75.4945 651.847 74.6217 651.847 73.5449C651.847 72.4682 650.975 71.5953 649.898 71.5953C648.821 71.5953 647.948 72.4682 647.948 73.5449C647.948 74.6217 648.821 75.4945 649.898 75.4945Z" fill="#683F1D"/>
<path d="M663.454 73.0163C664.531 73.0163 665.404 72.1435 665.404 71.0667C665.404 69.99 664.531 69.1171 663.454 69.1171C662.377 69.1171 661.504 69.99 661.504 71.0667C661.504 72.1435 662.377 73.0163 663.454 73.0163Z" fill="#683F1D"/>
<path d="M660.484 60.6083C660.703 63.2503 669.777 64.2524 670.287 62.7765C671.07 60.499 660.01 54.3769 660.484 60.6083Z" fill="#683F1D"/>
<path d="M643.193 64.5072C643.193 65.9466 653.068 66.6208 652.704 61.519C652.467 57.8931 643.412 60.5715 643.193 64.5072Z" fill="#683F1D"/>
<path d="M696.98 81.2518C701.044 75.239 707.476 75.895 708.15 77.0429" stroke="#914839" stroke-width="1.11146" stroke-linecap="round" stroke-linejoin="round"/>
<path d="M698.71 79.1931C704.705 75.6765 707.967 83.566 700.387 83.566" stroke="#914839" stroke-width="1.11146" stroke-linecap="round" stroke-linejoin="round"/>
<path d="M655.145 67.8965C656.785 71.0852 656.657 72.9983 655.564 75.0572C654.471 77.1162 651.173 81.7624 652.904 85.8803" stroke="#914839" stroke-width="1.11146" stroke-linecap="round" stroke-linejoin="round"/>
<path d="M665.768 86.5909C664.328 91.5287 658.479 94.6262 655.655 93.9884C655.655 93.9884 658.479 101.659 663.454 99.6915C669.175 97.4504 665.768 86.5909 665.768 86.5909Z" fill="white" stroke="#914839" stroke-width="1.11146" stroke-linecap="round" stroke-linejoin="round"/>
<path d="M696.087 88.2853C697.213 89.0594 698.49 89.5862 699.834 89.8312C701.178 90.0762 702.559 90.0337 703.885 89.7065" stroke="#914839" stroke-width="1.11146" stroke-linecap="round" stroke-linejoin="round"/>
<path d="M713.779 62.1751C719.391 69.8642 710.973 73.1075 710.973 73.1075C710.113 71.8756 708.986 70.854 707.675 70.1193C706.847 69.6327 705.921 69.3366 704.964 69.2527C704.007 69.1688 703.043 69.299 702.143 69.634C701.243 69.969 700.428 70.5004 699.759 71.1894C699.09 71.8785 698.582 72.708 698.273 73.6176C686.813 73.8545 691.75 64.9082 691.75 64.9082C681.474 69.0078 681.146 58.4945 685.574 53.739C677.557 62.7399 667.353 53.739 669.029 45.6308C666.187 54.486 656.075 54.7411 657.423 47.4529C656.554 48.9674 655.501 50.3688 654.289 51.6254C647.329 58.6039 641.115 51.1334 643.721 45.6126C633.299 55.5428 628.78 44.4282 638.729 38.4519C630.857 32.0018 640.15 22.8186 646.509 27.5195C645.069 16.0952 656.84 15.585 662.014 22.2538C664.055 9.69977 679.761 16.5507 680.399 22.5089C691.969 14.4189 700.934 20.3953 699.768 33.5323C704.45 27.2827 714.472 30.945 710.7 46.9791C720.229 46.2867 721.887 58.2577 713.779 62.1751Z" fill="#683F1D"/>
<path d="M707.675 70.1195C706.847 69.6329 705.921 69.3368 704.964 69.2529C704.007 69.169 703.043 69.2992 702.143 69.6342C701.242 69.9692 700.428 70.5006 699.759 71.1896C699.089 71.8787 698.582 72.7082 698.273 73.6178C686.812 73.8547 691.75 64.9084 691.75 64.9084C681.474 69.008 681.146 58.4947 685.573 53.7392C677.556 62.7401 667.353 53.7392 669.029 45.631C666.187 54.4862 656.074 54.7413 657.423 47.453C656.554 48.9676 655.501 50.369 654.289 51.6256C651.483 43.1165 657.769 31.8927 667.371 37.0491C668.628 30.2164 684.334 25.7888 684.243 43.0983C690.056 34.9719 703.211 37.7597 696.998 53.229C701.881 49.3662 713.141 55.707 707.675 70.1195Z" fill="#683F1D"/>
<path d="M686.594 73.1257C687.979 75.8953 685.373 80.0131 680.763 82.3271C676.153 84.6411 671.289 84.1492 669.831 81.4708C668.373 78.7923 671.052 74.5834 675.661 72.2694C680.271 69.9553 685.191 70.3562 686.594 73.1257Z" fill="#914839"/>
<path d="M648.167 83.6753C647.456 85.6432 645.051 86.7 642.081 86.6453C641.852 82.9136 641.852 79.1713 642.081 75.4396C646.49 77.371 649.187 80.9058 648.167 83.6753Z" fill="#914839"/>
</svg>
