<svg width="150" height="150" viewBox="0 0 150 150" fill="none" xmlns="http://www.w3.org/2000/svg">
<path d="M144.331 54.3582V95.8077C144.331 113.078 140.877 125.168 133.14 132.974L89.0652 88.8994L142.466 35.4985C143.71 40.9561 144.331 47.1735 144.331 54.3582Z" stroke="#DF9A2A" stroke-width="10.3624" stroke-linecap="round" stroke-linejoin="round"/>
<path d="M142.466 35.4984L35.6641 142.3C14.8701 137.534 6.16577 123.165 6.16577 95.8077V54.358C6.16577 19.8166 19.9823 6 54.5238 6H95.9735C123.33 6 137.7 14.7044 142.466 35.4984Z" stroke="#DF9A2A" stroke-width="10.3624" stroke-linecap="round" stroke-linejoin="round"/>
<path d="M133.137 132.974C125.33 140.712 113.241 144.166 95.97 144.166H54.5206C47.336 144.166 41.1184 143.544 35.6609 142.3L89.0617 88.8994L133.137 132.974Z" stroke="#DF9A2A" stroke-width="10.3624" stroke-linecap="round" stroke-linejoin="round"/>
<path opacity="0.4" d="M35.452 47.313C40.1496 27.0718 70.5462 27.0718 75.2438 47.313C77.938 59.1953 70.4771 69.2813 63.9142 75.4988C59.1473 80.0582 51.6175 80.0582 46.7817 75.4988C40.2188 69.2813 32.6887 59.1953 35.452 47.313Z" stroke="#DF9A2A" stroke-width="10.3624"/>
<path opacity="0.4" d="M55.174 52.2869H55.236" stroke="#DF9A2A" stroke-width="13.8166" stroke-linecap="round" stroke-linejoin="round"/>
</svg>
