<svg width="117" height="118" viewBox="0 0 117 118" fill="none" xmlns="http://www.w3.org/2000/svg">
<path d="M109.181 28.6721H59.6905V18.2969H109.181V28.6721ZM93.0314 46.9689L85.6961 39.6336L101.845 23.4844L85.6961 7.33535L93.0314 0L116.516 23.4844L93.0314 46.9689ZM78.724 117.796C69.1455 117.452 60.2366 114.894 52.3965 110.622L52.708 110.777C42.5924 105.492 33.9214 99.0421 26.4116 91.4422L26.4015 91.432C15.5873 81.0259 7.26472 68.1095 2.36532 53.6157L2.17004 52.9501C-1.97991 38.8448 -0.13844 26.9497 7.3577 19.4486L24.8297 1.987L58.7566 35.8882L45.3208 49.6769C44.3242 50.6722 43.7078 52.048 43.7078 53.5675C43.7078 55.0869 44.3242 56.463 45.3208 57.4583L60.4686 72.6582C61.4807 73.6606 62.8736 74.2801 64.4114 74.2801C65.9492 74.2801 67.3421 73.6606 68.3544 72.6576L82.0909 59.0613L116.044 93.0144L98.38 110.481C93.5495 115.026 87.0252 117.819 79.8484 117.819C79.453 117.819 79.0596 117.811 78.6681 117.794L78.724 117.796ZM24.8294 16.6367L14.6981 26.789C10.0291 31.458 9.08999 39.758 12.1041 50.0243C16.6841 63.4455 24.1087 74.872 33.7052 84.0461L33.7367 84.0759C48.1272 98.4665 65.3813 107.42 78.7239 107.42C79.0448 107.442 79.4195 107.455 79.7971 107.455C84.1332 107.455 88.0851 105.811 91.064 103.112L91.0497 103.125L101.295 92.9777L82.0283 73.7004L75.632 80.0294C72.7452 82.8935 68.7693 84.6631 64.3799 84.6631C59.9906 84.6631 56.0147 82.8932 53.1269 80.0283L53.128 80.0294L37.9801 64.8295C35.1065 61.9567 33.3292 57.9875 33.3292 53.6035C33.3292 49.2194 35.1065 45.2502 37.98 42.3774L44.205 36.007L24.8294 16.6367Z" fill="#DF9A2A"/>
</svg>
