<svg width="150" height="151" viewBox="0 0 150 151" fill="none" xmlns="http://www.w3.org/2000/svg">
<path d="M84.0082 30.0297H35.9606C34.0087 30.0297 32.1318 30.1047 30.33 30.33C10.135 32.0567 0 43.9935 0 65.9903V96.02C0 126.05 12.0119 131.981 35.9606 131.981H38.9636C40.6152 131.981 42.7924 133.107 43.7683 134.383L52.7772 146.395C56.7562 151.725 63.2126 151.725 67.1915 146.395L76.2004 134.383C77.3266 132.881 79.1283 131.981 81.0052 131.981H84.0082C106.005 131.981 117.942 121.921 119.668 101.651C119.894 99.8488 119.969 97.9719 119.969 96.02V65.9903C119.969 42.0416 107.957 30.0297 84.0082 30.0297ZM33.7834 90.0891C29.5793 90.0891 26.276 86.7108 26.276 82.5817C26.276 78.4526 29.6544 75.0743 33.7834 75.0743C37.9125 75.0743 41.2909 78.4526 41.2909 82.5817C41.2909 86.7108 37.9125 90.0891 33.7834 90.0891ZM59.9844 90.0891C55.7802 90.0891 52.477 86.7108 52.477 82.5817C52.477 78.4526 55.8553 75.0743 59.9844 75.0743C64.1135 75.0743 67.4918 78.4526 67.4918 82.5817C67.4918 86.7108 64.1885 90.0891 59.9844 90.0891ZM86.2604 90.0891C82.0562 90.0891 78.753 86.7108 78.753 82.5817C78.753 78.4526 82.1313 75.0743 86.2604 75.0743C90.3895 75.0743 93.7678 78.4526 93.7678 82.5817C93.7678 86.7108 90.3895 90.0891 86.2604 90.0891Z" fill="#DF9A2A"/>
<path d="M150 35.9606V65.9903C150 81.0052 145.345 91.2153 136.036 96.8459C133.784 98.1972 131.156 96.3954 131.156 93.7678L131.231 65.9903C131.231 35.9606 114.039 18.7686 84.0096 18.7686L38.2897 18.8437C35.6621 18.8437 33.8604 16.2161 35.2117 13.9638C40.8423 4.65461 51.0524 0 65.9918 0H114.039C137.988 0 150 12.0119 150 35.9606Z" fill="#DF9A2A"/>
</svg>
