<svg width="150" height="133" viewBox="0 0 150 133" fill="none" xmlns="http://www.w3.org/2000/svg">
<path d="M138.83 107.937V127.086H11.1702V107.937C11.1702 104.427 14.0426 101.554 17.5532 101.554H132.447C135.957 101.554 138.83 104.427 138.83 107.937Z" fill="#DF9A2A" stroke="#DF9A2A" stroke-width="10.8134" stroke-miterlimit="10" stroke-linecap="round" stroke-linejoin="round"/>
<path d="M43.0851 56.8733H30.3192V101.554H43.0851V56.8733Z" fill="#DF9A2A"/>
<path d="M68.617 56.8733H55.8511V101.554H68.617V56.8733Z" fill="#DF9A2A"/>
<path d="M94.149 56.8733H81.383V101.554H94.149V56.8733Z" fill="#DF9A2A"/>
<path d="M119.681 56.8733H106.915V101.554H119.681V56.8733Z" fill="#DF9A2A"/>
<path d="M145.213 131.873H4.78723C2.17021 131.873 0 129.703 0 127.086C0 124.469 2.17021 122.299 4.78723 122.299H145.213C147.83 122.299 150 124.469 150 127.086C150 129.703 147.83 131.873 145.213 131.873Z" fill="#DF9A2A"/>
<path d="M134.809 23.3617L77.3617 0.382979C76.0851 -0.12766 73.9149 -0.12766 72.6383 0.382979L15.1915 23.3617C12.9575 24.2553 11.1702 26.8723 11.1702 29.2979V50.4894C11.1702 53.9997 14.0426 56.8721 17.5532 56.8721H132.447C135.957 56.8721 138.83 53.9997 138.83 50.4894V29.2979C138.83 26.8723 137.043 24.2553 134.809 23.3617ZM75 40.9149C69.7021 40.9149 65.4255 36.6383 65.4255 31.3404C65.4255 26.0426 69.7021 21.766 75 21.766C80.2979 21.766 84.5745 26.0426 84.5745 31.3404C84.5745 36.6383 80.2979 40.9149 75 40.9149Z" fill="#DF9A2A"/>
</svg>
