<svg width="150" height="154" viewBox="0 0 150 154" fill="none" xmlns="http://www.w3.org/2000/svg">
<path d="M144.231 153.786H5.76923C2.61538 153.786 0 151.171 0 148.017C0 144.863 2.61538 142.248 5.76923 142.248H144.231C147.385 142.248 150 144.863 150 148.017C150 151.171 147.385 153.786 144.231 153.786Z" fill="#DF9A2A"/>
<path d="M129.005 11.337C114.082 -3.58608 99.4663 -3.9707 84.1586 11.337L74.8509 20.6447C74.0817 21.4139 73.774 22.6447 74.0817 23.7216C79.9278 44.1062 96.2355 60.4139 116.62 66.2599C116.928 66.3368 117.235 66.4138 117.543 66.4138C118.389 66.4138 119.159 66.1061 119.774 65.4907L129.005 56.1831C136.62 48.6447 140.312 41.337 140.312 33.9524C140.389 26.337 136.697 18.9524 129.005 11.337Z" fill="#DF9A2A"/>
<path d="M102.772 73.2535C100.541 72.1765 98.3869 71.0996 96.31 69.8689C94.6177 68.8689 93.0023 67.7919 91.3869 66.6381C90.0792 65.7919 88.5408 64.5612 87.0792 63.3304C86.9254 63.2535 86.3869 62.7919 85.7715 62.1765C83.2331 60.0225 80.3869 57.2533 77.8485 54.1764C77.6177 54.0225 77.2331 53.4841 76.6946 52.7918C75.9254 51.8687 74.6177 50.3302 73.4638 48.561C72.5408 47.4072 71.4638 45.7149 70.4638 44.0225C69.2331 41.9456 68.1561 39.8687 67.0792 37.7149C66.9161 37.3657 66.7584 37.0182 66.6061 36.6729C65.4708 34.1089 62.1269 33.3592 60.1446 35.342L16.0794 79.4073C15.0794 80.4073 14.1563 82.3304 13.9255 83.6381L9.77168 113.1C9.00245 118.33 10.464 123.253 13.6948 126.561C16.464 129.253 20.3101 130.715 24.464 130.715C25.3871 130.715 26.3101 130.638 27.2332 130.484L56.7717 126.33C58.1563 126.1 60.0792 125.177 61.0023 124.177L105.012 80.1665C107.009 78.1696 106.256 74.7435 103.659 73.635C103.367 73.5104 103.071 73.3827 102.772 73.2535Z" fill="#DF9A2A"/>
</svg>
