<svg width="108" height="116" viewBox="0 0 108 116" fill="none" xmlns="http://www.w3.org/2000/svg">
<g clip-path="url(#clip0_11_30)">
<path d="M51.5672 116C44.3231 113.443 37.0614 110.932 29.8502 108.286C28.5186 107.798 27.3986 106.745 26.1524 106.002C25.7681 105.774 25.2886 105.582 24.8499 105.58C19.6653 105.549 14.4825 105.6 9.29786 105.545C4.60234 105.497 0.479442 102.042 0.0970451 97.6186C-0.368819 92.2413 0.813311 87.1911 4.01418 82.7429C6.53761 79.2335 9.96948 77.0287 14.335 76.0164C14.0963 75.6021 13.875 75.2711 13.7042 74.915C12.8112 73.0509 11.8756 71.2023 11.0662 69.3015C10.5596 68.111 11.0293 67.1645 12.0833 66.8335C13.1451 66.5005 13.8303 67.0928 14.3699 68.2388C15.4725 70.579 16.7323 72.8476 17.9765 75.1201C18.1221 75.3853 18.5608 75.5963 18.8908 75.6408C20.6436 75.8751 22.4042 76.0493 24.2579 76.2545C24.3317 75.6873 24.4016 74.9963 24.5161 74.313C24.8616 72.2224 25.9641 70.6042 27.7286 69.466C28.2702 69.1156 28.4546 68.7556 28.4895 68.1207C28.7865 62.5788 33.5674 59.4391 38.8103 61.3342C43.3855 62.9872 47.9393 64.7042 52.5281 66.3205C53.1706 66.547 54.0286 66.5528 54.6691 66.3282C59.2229 64.7294 63.7962 63.1595 68.2685 61.3516C73.1872 59.3656 78.6359 62.573 78.7718 68.2039C78.7815 68.5775 79.0105 69.0924 79.3075 69.2879C81.6756 70.8558 82.8325 73.0431 82.8772 75.8499C82.8791 75.997 82.9102 76.1422 82.9218 76.2506C84.8163 76.0454 86.6817 75.8886 88.5258 75.6041C88.914 75.5441 89.3003 75.0563 89.5623 74.6788C94.549 67.4703 95.4807 59.6792 92.7768 51.4235C92.1479 49.5052 91.288 47.6643 90.4145 45.4886C87.6038 51.166 83.4187 54.6909 77.5236 55.9801C71.5742 57.2808 66.3138 55.7052 61.5561 51.799C59.5665 54.3967 56.9324 55.8968 53.6403 55.8968C50.3832 55.8968 47.7355 54.4954 45.6974 51.797C41.0154 55.6374 35.7434 57.2866 29.7551 55.9917C23.825 54.7102 19.6303 51.1892 16.907 45.6745C15.3871 48.4367 14.2185 51.2202 13.6906 54.1857C13.2577 56.6188 13.1587 59.1159 12.9898 61.5897C12.9025 62.8885 12.3454 63.6783 11.2894 63.6764C10.2373 63.6764 9.62784 62.9098 9.56767 61.5955C9.24739 54.5825 11.3671 48.2412 14.8222 42.2405C15.224 41.5418 15.4647 40.632 15.4414 39.8306C15.2939 34.9236 15.7811 33.1118 19.0635 27.3435C16.7031 24.5871 14.7058 21.5984 13.6149 18.0715C11.9843 12.8026 12.6501 7.78336 15.2861 3.01382C17.2117 -0.470419 22.014 -1.10145 24.4792 1.9821C27.2608 5.46247 30.8848 7.34976 34.9708 8.72216C37.8611 9.69388 40.7476 10.7372 43.5136 12.0109C47.5259 13.8614 50.7384 16.7862 53.5802 20.2898C54.2964 19.5059 54.9622 18.7587 55.6494 18.029C58.1903 15.3345 61.1349 13.1897 64.4891 11.6083C65.7179 11.0295 66.7602 11.2792 67.195 12.2529C67.6124 13.1878 67.1795 14.1266 65.9954 14.686C61.6163 16.7553 58.1553 19.8853 55.3252 23.7625C54.2692 25.2104 53.0405 25.3536 52.1127 24.0102C47.8442 17.8451 41.8579 14.2563 34.7631 12.2451C33.2782 11.8251 31.834 11.2482 30.3995 10.6733C27.1773 9.38417 24.454 7.41945 22.309 4.6669C20.9367 2.90542 19.0985 3.08544 18.0755 5.06952C15.9209 9.24093 15.5793 13.5362 17.2447 17.9593C18.1997 20.4931 19.6342 22.7269 21.4394 24.7961C27.154 20.2763 33.4393 18.8748 40.2467 21.6293C47.0406 24.378 50.6724 29.6837 51.6313 36.8516H55.5523C57.1285 22.1074 74.1849 15.0015 85.7422 24.7419C90.824 19.2368 92.7477 12.0283 89.2284 5.19921C88.1395 3.08544 86.3052 2.85703 84.8707 4.73271C81.7203 8.85186 77.248 10.774 72.4962 12.2374C71.4985 12.5451 70.6327 12.0419 70.3183 11.1205C70.0155 10.2339 70.4716 9.35707 71.4635 8.968C73.2532 8.26728 75.0798 7.65173 76.8326 6.87165C78.9348 5.93477 80.6585 4.4772 82.0988 2.67314C85.2414 -1.26405 90.1408 -0.751094 92.3459 3.78422C96.2572 11.8212 94.615 19.1362 89.3216 25.9401C88.9742 26.3873 88.6073 26.8189 88.2521 27.2603C88.2288 27.2893 88.2152 27.3261 88.485 27.2448C89.4381 29.5966 90.6163 31.8865 91.2724 34.3178C91.7713 36.1664 91.5849 38.195 91.7577 40.1403C91.812 40.7481 91.9149 41.414 92.2139 41.927C95.0032 46.7004 97.0142 51.7467 97.5655 57.277C98.1963 63.5892 96.8434 69.4854 93.5358 74.9208C93.3436 75.2363 93.1592 75.5595 92.9165 75.9718C93.264 76.0764 93.5338 76.1557 93.8056 76.237C101.168 78.436 105.171 83.643 106.671 90.8883C107.145 93.1782 107.349 95.652 107.024 97.9496C106.396 102.421 102.502 105.499 97.9207 105.545C92.8137 105.598 87.7047 105.574 82.5957 105.545C81.8251 105.541 81.3068 105.76 80.7264 106.294C79.9403 107.018 79.0047 107.69 78.0108 108.066C71.6227 110.47 65.2073 112.796 58.7901 115.121C57.7749 115.489 56.7053 115.712 55.661 116H51.575H51.5672ZM18.7821 38.2801C18.8733 39.1009 18.9121 39.9332 19.0635 40.7423C20.1137 46.3674 23.3456 50.264 28.7321 52.1358C34.1303 54.0095 39.0666 52.8694 43.4069 49.1509C43.9717 48.667 44.1891 48.1715 44.1057 47.3992C43.7388 44.0504 44.8666 41.2321 47.4288 39.0505C48.0267 38.5414 48.2732 38.0556 48.1645 37.3297C48.1024 36.9193 48.0383 36.5109 47.982 36.1005C47.0309 29.1824 40.4506 22.9959 31.8476 23.7992C24.7917 24.4574 18.8655 30.911 18.784 38.2801H18.7821ZM73.7191 23.596C72.3118 23.8399 70.8676 23.9599 69.5011 24.3509C63.7981 25.9827 59.5413 31.2362 59.0909 37.1458C59.0502 37.6762 59.1608 38.4447 59.5102 38.7389C62.2278 41.0424 63.4215 43.9381 63.1168 47.4495C63.0547 48.1638 63.2391 48.6399 63.769 49.1122C67.3212 52.2771 71.4771 53.5411 76.1416 52.7746C83.7332 51.528 89.0402 44.5672 88.3394 36.9813C87.6542 29.554 81.2797 23.7663 73.7191 23.596ZM74.5576 105.741C74.546 105.656 74.5343 105.569 74.5227 105.483C74.313 105.435 74.1015 105.387 73.8918 105.338C69.866 104.413 67.0592 100.718 67.3096 96.6179C67.8104 88.4435 71.4946 82.2202 78.7155 78.1708C78.9659 78.0314 79.2726 77.8417 79.3696 77.6036C80.0936 75.8189 78.9678 72.9735 77.2402 72.1043C75.994 71.4772 74.7711 71.6611 73.5172 72.1198C67.8569 74.1968 62.2006 76.2854 56.5073 78.2753C55.6358 78.5792 55.3369 78.858 55.3388 79.7832C55.3737 90.265 55.3602 100.747 55.3602 111.228V112.705C61.9191 110.326 68.2374 108.035 74.5557 105.743L74.5576 105.741ZM32.3736 105.627C38.9909 108.029 45.3053 110.321 51.8565 112.7C51.8565 111.877 51.8565 111.434 51.8565 110.992C51.8565 101.182 51.8565 91.3703 51.8526 81.5602C51.8526 80.6194 52.1263 79.4754 51.6915 78.7999C51.3091 78.2056 50.1075 78.134 49.269 77.8301C43.8785 75.877 38.4687 73.9781 33.1113 71.9398C31.1546 71.1946 28.5342 72.3173 27.9809 74.5104C27.8082 75.1937 27.88 75.9351 27.7927 76.6435C27.6917 77.4546 27.9926 77.9056 28.7419 78.316C33.3578 80.8498 36.7198 84.5702 38.4473 89.5275C39.2548 91.8406 39.7091 94.3473 39.8721 96.7979C40.1555 101.072 37.5214 104.097 32.3717 105.625L32.3736 105.627ZM20.3388 102.125C20.6416 102.125 20.9445 102.127 21.2473 102.125C24.8771 102.094 28.5128 102.173 32.1349 101.989C34.5865 101.866 36.3762 99.8215 36.3995 97.3747C36.4131 95.9927 36.3141 94.5719 36.0035 93.2285C34.2119 85.4799 28.1983 80.0639 20.1835 79.1638C14.9795 78.5792 10.4509 80.0949 7.11412 84.3534C4.72657 87.4021 3.79484 90.9676 3.43574 94.748C2.96987 99.6511 6.04069 102.34 10.4664 102.152C13.7507 102.013 17.0467 102.125 20.3388 102.125ZM86.8506 102.125C86.8506 102.092 86.8506 102.061 86.8506 102.028C90.7833 102.028 94.7218 102.168 98.6467 101.984C101.64 101.842 103.86 99.2504 103.763 96.2462C103.701 94.3396 103.534 92.3884 103.055 90.5495C101.712 85.4103 98.8602 81.4034 93.5513 79.7793C82.9762 76.5429 71.3354 84.4811 70.8094 96.2153C70.6385 100.029 72.5971 102.102 76.4094 102.119C79.8898 102.137 83.3702 102.123 86.8506 102.123V102.125ZM75.2215 67.9C75.1827 67.6755 75.1652 67.2245 75.0254 66.816C74.28 64.6365 72.1118 63.6551 69.7922 64.4932C64.7939 66.2992 59.8208 68.171 54.8089 69.9344C54.0946 70.1861 53.1551 70.1745 52.4291 69.9422C50.0629 69.1814 47.753 68.2523 45.414 67.4025C42.545 66.3612 39.6994 65.2443 36.7896 64.3326C34.272 63.5428 31.7156 65.7437 32.1097 68.0936C33.1908 68.4227 34.2468 68.6956 35.2698 69.0653C40.4079 70.9255 45.5421 72.7934 50.6666 74.6943C52.6329 75.424 54.5662 75.4608 56.519 74.7001C57.1518 74.4543 57.7904 74.2278 58.429 73.9974C63.9806 71.9805 69.5321 69.9654 75.2195 67.9H75.2215ZM53.6248 46.0519C55.3718 45.8254 57.0858 45.5893 58.8017 45.3899C59.549 45.3028 59.6325 44.9641 59.419 44.3156C58.6387 41.9599 56.1968 40.1945 53.6326 40.179C51.0781 40.1636 48.6401 41.9018 47.8132 44.2691C47.5647 44.9795 47.685 45.3105 48.479 45.3976C50.1968 45.5873 51.9089 45.8293 53.6248 46.0519ZM58.9473 49.1742H48.2984C48.8788 50.8776 51.0063 52.3332 53.2327 52.4261C55.8474 52.5345 58.0097 51.2763 58.9473 49.1742Z" fill="#DF9A2A"/>
<path d="M35.4833 44.9796C35.5221 44.4415 35.5105 43.795 35.6308 43.1755C35.7958 42.3296 36.4092 41.8844 37.2497 41.8767C38.0882 41.8689 38.7967 42.2948 38.8802 43.1407C39.0044 44.4008 39.0161 45.6881 38.9054 46.9501C38.8278 47.8309 38.1542 48.3129 37.2303 48.2954C36.3044 48.278 35.7512 47.7534 35.5959 46.8785C35.4911 46.292 35.5202 45.6823 35.4833 44.9815V44.9796Z" fill="#DF9A2A"/>
<path d="M68.1675 44.9021C68.2025 44.3911 68.1811 43.7794 68.3015 43.1987C68.4878 42.3102 69.1264 41.8476 70.0193 41.8767C70.8598 41.9057 71.5198 42.3761 71.5897 43.2239C71.6906 44.4511 71.7003 45.6996 71.5897 46.9269C71.5101 47.8095 70.8559 48.2993 69.9339 48.2954C69.0061 48.2915 68.4412 47.7728 68.2801 46.9017C68.1656 46.2803 68.2005 45.6319 68.1656 44.9041L68.1675 44.9021Z" fill="#DF9A2A"/>
<path d="M16.1849 88.6023C15.29 88.581 13.9313 87.8764 12.9665 86.4749C12.3997 85.6523 12.5376 84.7231 13.2383 84.1444C13.9313 83.5733 14.8688 83.643 15.5948 84.3224C16.8895 85.5303 17.2292 85.5323 18.4948 84.336C19.2188 83.6508 20.1506 83.5714 20.8493 84.1347C21.552 84.7018 21.6704 85.631 21.1463 86.4711C20.3291 87.7815 18.7122 88.6139 16.1849 88.6023Z" fill="#DF9A2A"/>
<path d="M11.2234 96.5986C9.72685 96.5773 8.35061 95.9056 7.36453 94.5158C6.78802 93.7047 6.8909 92.7485 7.5567 92.1639C8.25355 91.5522 9.25128 91.6238 10.0005 92.3381C11.1924 93.4763 11.6427 93.4763 12.8171 92.3459C13.5644 91.6238 14.5582 91.5464 15.259 92.1562C15.9888 92.7911 16.0742 93.7202 15.4182 94.5874C14.4243 95.9017 13.0908 96.585 11.2254 96.5986H11.2234Z" fill="#DF9A2A"/>
<path d="M27.0085 96.5967C25.4206 96.5792 24.0677 95.863 23.0816 94.4848C22.5051 93.6776 22.6255 92.7524 23.3281 92.1504C24.0095 91.5677 24.9645 91.6239 25.6769 92.2878C26.9774 93.4996 27.2919 93.4957 28.6642 92.253C29.3805 91.6045 30.1569 91.5542 30.9256 92.1155C31.6671 92.6575 31.8224 93.6428 31.2634 94.4345C30.2656 95.8533 28.8836 96.5947 27.0065 96.5967H27.0085Z" fill="#DF9A2A"/>
<path d="M90.2359 88.6178C88.5064 88.612 87.1709 87.9364 86.179 86.6163C85.5268 85.7491 85.6025 84.8045 86.3168 84.1792C87.0273 83.5559 87.9842 83.6295 88.7548 84.367C89.9525 85.5129 90.3912 85.5129 91.5752 84.3728C92.342 83.6334 93.3009 83.5559 94.0133 84.1754C94.7334 84.8025 94.8149 85.7394 94.1647 86.6105C93.1767 87.9345 91.8392 88.6081 90.2359 88.6197V88.6178Z" fill="#DF9A2A"/>
<path d="M96.0339 96.5986C94.1394 96.5908 92.8059 95.9056 91.8101 94.5951C91.1443 93.7202 91.2219 92.8104 91.9557 92.1659C92.6525 91.5542 93.6522 91.6258 94.3976 92.342C95.5817 93.4802 96.0359 93.4802 97.2141 92.3497C97.9634 91.6316 98.9572 91.5561 99.656 92.162C100.353 92.7659 100.429 93.757 99.7977 94.6068C98.8078 95.9385 97.4548 96.5773 96.0339 96.6005V96.5986Z" fill="#DF9A2A"/>
<path d="M80.0587 96.6005C78.3874 96.5908 77.0228 95.8959 76.0251 94.5235C75.4098 93.6776 75.5321 92.7117 76.2871 92.1097C76.9801 91.5561 77.9138 91.6452 78.6339 92.3323C79.8491 93.4937 80.2586 93.4879 81.5417 92.2897C82.2541 91.6239 83.2091 91.5677 83.8904 92.1504C84.5931 92.7524 84.7173 93.6757 84.1408 94.4848C83.1567 95.8669 81.7979 96.5734 80.0606 96.6005H80.0587Z" fill="#DF9A2A"/>
</g>
<defs>
<clipPath id="clip0_11_30">
<rect width="107.174" height="116" fill="white"/>
</clipPath>
</defs>
</svg>
